<svg xmlns="http://www.w3.org/2000/svg" xml:space="preserve" width="800px" height="800px" viewBox="0 0 512 512"><path d="M508.176 243.518c-5.5-6.281-15.109-6.859-21.391-1.313l-44.672 39.547-126.187 111.656a43 43 0 0 1-28.484 10.781 44 44 0 0 1-9.109-.938l-72.125-15.984-87.094-19.219-61.078-13.516-8.734-1.953c-2.766-.938-5.219-2.156-7.375-3.766a26.45 26.45 0 0 1-8.109-9.531 26.7 26.7 0 0 1-2.953-12.219c0-2.609.438-5.344 1.219-8.016a28.6 28.6 0 0 1 3.984-7.813c2.453-3.469 5.781-6.219 9.531-8.094 3.703-1.953 7.875-2.953 12.156-2.953.719 0 1.438.063 2.156.063l62.953 13.594 146 31.578a57.9 57.9 0 0 0 50.813-13.219l89.766-79.078 91.656-80.734c8.234-7.297 11.703-18.578 8.891-29.188a29.04 29.04 0 0 0-22.047-21.188l-11.422-2.453-83.266-18-105.454-22.763c-18.063-3.969-36.922.938-50.813 13.234L96.129 215.768 53.77 252.986l-36.86 32.375c-1.516 1.734-2.813 3.469-3.969 5.344-.656.797-1.234 1.516-1.813 2.391-3.609 4.922-6.5 10.547-8.453 16.703a57.1 57.1 0 0 0-2.672 17.266c0 12.359 3.969 24.141 10.984 33.828a56.1 56.1 0 0 0 12.797 12.859 55.3 55.3 0 0 0 16.688 8.391l.656.219 64.25 14.094 60.859 13.297 105.672 23.125c5.125 1.156 10.328 1.672 15.531 1.672a73.54 73.54 0 0 0 48.578-18.297l3.609-3.172 125.469-111.094 41.781-37c6.283-5.579 6.861-15.173 1.299-21.469" style="fill:#fff"/></svg>