<svg xmlns="http://www.w3.org/2000/svg" width="797px" height="793px" style="shape-rendering:geometricPrecision;text-rendering:geometricPrecision;image-rendering:optimizeQuality;fill-rule:evenodd;clip-rule:evenodd"><path fill="#fefffe" d="M276.5 61.5q54.012-.326 108 1a4432 4432 0 0 0-.5 162q-.277 40.839 14 79 24.355 53.34 81.5 67.5a401 401 0 0 0 64 7q94.356.254 188.5 1.5a2778 2778 0 0 1-1 202q-1.49 36.442-13 71-20.712 50.71-73.5 65.5a369 369 0 0 1-80 10 11383 11383 0 0 1-289 1 689 689 0 0 1-104-7Q88.25 706.75 73 623.5a689 689 0 0 1-7-104q-1-124 0-248a689 689 0 0 1 7-104Q88.25 84.25 171.5 69a316 316 0 0 1 31-4 2006 2006 0 0 1 74-3.5m-50 368q16.863-2.19 27.5 11 21.827 36.393 2 74-23.065 27.986-46 0-19.49-34.818-1-70 6.756-10.018 17.5-15m334 0q17.022-1.615 27.5 12 21.913 36.273 1 73-18.441 24.564-42 5-21.68-30.498-9-66 5.974-17.216 22.5-24m-177 125q73.157-4.027 133.5 37 13.495 16.833 1 34-10.16 10.386-24.5 7.5-94-59-188 0-26.957 2.774-31-24 1.133-10.266 8-18 45.918-31.22 101-36.5" style="opacity:1"/><path fill="#fefffe" d="M432.5 71.5q12.592 2.794 23 10.5a617 617 0 0 1 33 26 38290 38290 0 0 0 195 176q18.504 17.491 32.5 38.5 1.952 2.853 2 6a4914 4914 0 0 1-171.5.5q-33.713.55-66-9-37.319-15.342-43.5-55.5a920 920 0 0 1-3-20 2690 2690 0 0 1-1.5-173" style="opacity:1"/></svg>