<?xml version="1.0" encoding="UTF-8"?>
<!DOCTYPE svg PUBLIC "-//W3C//DTD SVG 1.1//EN" "http://www.w3.org/Graphics/SVG/1.1/DTD/svg11.dtd">
<svg xmlns="http://www.w3.org/2000/svg" version="1.1" width="797px" height="793px" style="shape-rendering:geometricPrecision; text-rendering:geometricPrecision; image-rendering:optimizeQuality; fill-rule:evenodd; clip-rule:evenodd" xmlns:xlink="http://www.w3.org/1999/xlink">
<g><path style="opacity:1" fill="#fefffe" d="M 276.5,61.5 C 312.508,61.2827 348.508,61.616 384.5,62.5C 383.346,116.471 383.18,170.471 384,224.5C 383.815,251.726 388.482,278.059 398,303.5C 414.237,339.06 441.403,361.56 479.5,371C 500.639,375.047 521.972,377.381 543.5,378C 606.404,378.169 669.237,378.669 732,379.5C 734.115,446.844 733.782,514.177 731,581.5C 730.007,605.795 725.673,629.461 718,652.5C 704.192,686.306 679.692,708.14 644.5,718C 618.213,724.254 591.546,727.588 564.5,728C 468.173,729.556 371.839,729.89 275.5,729C 240.643,729.293 205.977,726.959 171.5,722C 116,711.833 83.1667,679 73,623.5C 68.0405,589.023 65.7072,554.357 66,519.5C 65.3333,436.833 65.3333,354.167 66,271.5C 65.7072,236.643 68.0405,201.977 73,167.5C 83.1667,112 116,79.1667 171.5,69C 181.766,67.1556 192.099,65.8223 202.5,65C 227.304,63.3702 251.971,62.2035 276.5,61.5 Z M 226.5,429.5 C 237.742,428.04 246.909,431.706 254,440.5C 268.552,464.762 269.218,489.428 256,514.5C 240.623,533.157 225.29,533.157 210,514.5C 197.007,491.288 196.674,467.955 209,444.5C 213.504,437.821 219.337,432.821 226.5,429.5 Z M 560.5,429.5 C 571.848,428.423 581.015,432.423 588,441.5C 602.609,465.682 602.942,490.015 589,514.5C 576.706,530.876 562.706,532.543 547,519.5C 532.547,499.168 529.547,477.168 538,453.5C 541.983,442.023 549.483,434.023 560.5,429.5 Z M 383.5,554.5 C 432.271,551.815 476.771,564.149 517,591.5C 525.997,602.722 526.33,614.056 518,625.5C 511.226,632.424 503.06,634.924 493.5,633C 430.833,593.667 368.167,593.667 305.5,633C 287.529,634.849 277.195,626.849 274.5,609C 275.255,602.156 277.922,596.156 282.5,591C 313.112,570.186 346.779,558.02 383.5,554.5 Z"/></g>
<g><path style="opacity:1" fill="#fefffe" d="M 432.5,71.5 C 440.895,73.3633 448.561,76.8633 455.5,82C 466.787,90.2856 477.787,98.9522 488.5,108C 553.311,166.901 618.311,225.567 683.5,284C 695.836,295.661 706.669,308.494 716,322.5C 717.301,324.402 717.968,326.402 718,328.5C 660.904,329.664 603.737,329.831 546.5,329C 524.025,329.367 502.025,326.367 480.5,320C 455.621,309.772 441.121,291.272 437,264.5C 435.927,257.846 434.927,251.18 434,244.5C 431.645,186.856 431.145,129.19 432.5,71.5 Z"/></g>
</svg>
