<svg xmlns="http://www.w3.org/2000/svg" width="800px" height="800px" fill="#fff" viewBox="0 0 24 24"><g fill="none"><path d="M24 0v24H0V0zM12.593 23.258l-.011.002-.071.035-.02.004-.014-.004-.071-.035q-.016-.005-.024.005l-.004.01-.017.428.005.02.01.013.104.074.015.004.012-.004.104-.074.012-.016.004-.017-.017-.427q-.004-.016-.017-.018m.265-.113-.013.002-.185.093-.01.01-.003.011.018.43.005.012.008.007.201.093q.019.005.029-.008l.004-.014-.034-.614q-.005-.018-.02-.022m-.715.002a.02.02 0 0 0-.027.006l-.006.014-.034.614q.001.018.017.024l.015-.002.201-.093.01-.008.004-.011.017-.43-.003-.012-.01-.01z"/><path fill="#fff" d="M9.793 12.793a1 1 0 0 1 1.497 1.32l-.083.094L6.414 19H9a1 1 0 0 1 .117 1.993L9 21H4a1 1 0 0 1-.993-.883L3 20v-5a1 1 0 0 1 1.993-.117L5 15v2.586zM20 3a1 1 0 0 1 .993.883L21 4v5a1 1 0 0 1-1.993.117L19 9V6.414l-4.793 4.793a1 1 0 0 1-1.497-1.32l.083-.094L17.586 5H15a1 1 0 0 1-.117-1.993L15 3z"/></g></svg>