<svg xmlns="http://www.w3.org/2000/svg" width="800px" height="800px" fill="#fff" stroke="#fff" stroke-width="0.00024000000000000003" viewBox="0 0 24.00 24.00"><path fill="none" d="M0 0h24v24H0z"/><path d="M18.6 6.62a5.38 5.38 0 1 1-3.82 9.18L12 13.34l-2.83 2.51a5.33 5.33 0 0 1-3.77 1.53A5.38 5.38 0 1 1 9.22 8.2L12 10.66l2.83-2.51a5.33 5.33 0 0 1 3.77-1.53M7.8 14.39 10.5 12 7.84 9.65a3.39 3.39 0 1 0-2.44 5.73 3.36 3.36 0 0 0 2.4-1m8.4-4.78L13.5 12l2.66 2.35a3.39 3.39 0 1 0 2.44-5.73 3.36 3.36 0 0 0-2.4.99Z"/></svg>