<!DOCTYPE svg PUBLIC "-//W3C//DTD SVG 1.1//EN" "http://www.w3.org/Graphics/SVG/1.1/DTD/svg11.dtd">
<!-- Uploaded to: SVG Repo, www.svgrepo.com, Transformed by: SVG Repo Mixer Tools -->
<svg version="1.1" id="_x32_" xmlns="http://www.w3.org/2000/svg" xmlns:xlink="http://www.w3.org/1999/xlink" width="800px" height="800px" viewBox="0 0 512 512" xml:space="preserve" fill="#000000">
<g id="SVGRepo_bgCarrier" stroke-width="0"/>
<g id="SVGRepo_tracerCarrier" stroke-linecap="round" stroke-linejoin="round"/>
<g id="SVGRepo_iconCarrier"> <style type="text/css">  .st0{fill:#ffffff;}  </style> <g> <path class="st0" d="M508.176,243.518c-5.5-6.281-15.109-6.859-21.391-1.313l-44.672,39.547L315.926,393.408 c-7.953,7.016-18.078,10.781-28.484,10.781c-3.031,0-6.063-0.297-9.109-0.938l-72.125-15.984l-87.094-19.219l-61.078-13.516 l-8.734-1.953c-2.766-0.938-5.219-2.156-7.375-3.766c-3.469-2.516-6.219-5.781-8.109-9.531c-1.938-3.766-2.953-7.953-2.953-12.219 c0-2.609,0.438-5.344,1.219-8.016c0.953-2.891,2.313-5.5,3.984-7.813c2.453-3.469,5.781-6.219,9.531-8.094 c3.703-1.953,7.875-2.953,12.156-2.953c0.719,0,1.438,0.063,2.156,0.063l62.953,13.594l146,31.578 c18.078,3.969,36.938-0.938,50.813-13.219l89.766-79.078l91.656-80.734c8.234-7.297,11.703-18.578,8.891-29.188 c-2.75-10.703-11.281-18.875-22.047-21.188l-11.422-2.453l-83.266-18L287.801,78.799c-18.063-3.969-36.922,0.938-50.813,13.234 L96.129,215.768L53.77,252.986L16.91,285.361c-1.516,1.734-2.813,3.469-3.969,5.344c-0.656,0.797-1.234,1.516-1.813,2.391 c-3.609,4.922-6.5,10.547-8.453,16.703c-1.813,5.703-2.672,11.563-2.672,17.266c0,12.359,3.969,24.141,10.984,33.828 c3.531,4.922,7.797,9.25,12.797,12.859c4.906,3.625,10.547,6.516,16.688,8.391l0.656,0.219l64.25,14.094l60.859,13.297 l105.672,23.125c5.125,1.156,10.328,1.672,15.531,1.672c17.703,0,34.984-6.359,48.578-18.297l3.609-3.172l125.469-111.094 l41.781-37C513.16,259.408,513.738,249.814,508.176,243.518z"/> </g> </g>
</svg>